<svg width="20" height="20" viewBox="0 0 20 20" fill="none" xmlns="http://www.w3.org/2000/svg">
<path d="M20 9.99466L10.8822 0V5.98694H9.82301C7.19928 5.98694 4.73246 7.00836 2.87712 8.86307C1.02177 10.7178 0 13.1837 0 15.8067V20L1.74987 18.0833C4.09061 15.5197 7.41328 14.0367 10.8822 14.003V19.9895L20 9.99466ZM1.17243 16.987V15.8067C1.17243 13.4969 2.07224 11.3251 3.70611 9.69177C5.33997 8.05847 7.51234 7.15897 9.82301 7.15897H12.0545V3.02444L18.4135 9.99466L12.0545 16.965V12.8305H11.0026C7.30201 12.8305 3.74335 14.3404 1.17243 16.987Z" fill="white"/>
</svg>
