<svg width="20" height="20" viewBox="0 0 20 20" fill="none" xmlns="http://www.w3.org/2000/svg">
<circle cx="10" cy="10" r="9.5" fill="white" stroke="#FF9337"/>
<path d="M9.28358 5H10.7463V9.81742L10.4478 12.2472H9.58209L9.28358 9.81742V5ZM9 14.1152C9 13.8436 9.08955 13.6283 9.26866 13.4691C9.45771 13.3099 9.70149 13.2303 10 13.2303C10.2985 13.2303 10.5373 13.3099 10.7164 13.4691C10.9055 13.6283 11 13.8436 11 14.1152C11 14.368 10.9055 14.5787 10.7164 14.7472C10.5373 14.9157 10.2985 15 10 15C9.70149 15 9.45771 14.9157 9.26866 14.7472C9.08955 14.5787 9 14.368 9 14.1152Z" fill="#FF9337"/>
</svg>
