<svg width="20" height="20" viewBox="0 0 20 20" fill="none" xmlns="http://www.w3.org/2000/svg">
<path d="M18 4.66667H2V18C2 18.7364 2.59695 19.3333 3.33333 19.3333H16.6667C17.403 19.3333 18 18.7364 18 18V4.66667Z" fill="#4F4F4F"/>
<path d="M6 4V2C6 1.26363 6.59695 0.666672 7.33333 0.666672H12.6667C13.403 0.666672 14 1.26363 14 2.00001V4M0 4.66667H20M2 4.66667V18C2 18.7364 2.59695 19.3333 3.33333 19.3333H16.6667C17.403 19.3333 18 18.7364 18 18V4.66667M10 9.33334V16M6 12V16M14 12V16" stroke="#4F4F4F"/>
</svg>
