<svg width="20" height="20" viewBox="0 0 20 20" fill="none" xmlns="http://www.w3.org/2000/svg">
<path d="M4.66669 11.3334V2.00002C4.66669 1.26364 5.26364 0.666687 6.00002 0.666687H10L12.6667 3.33335H18C18.7364 3.33335 19.3334 3.93031 19.3334 4.66669V11.3334C19.3334 12.0697 18.7364 12.6667 18 12.6667H6.00002M4.66669 11.3334C4.66669 12.0697 5.26364 12.6667 6.00002 12.6667M4.66669 11.3334V7.33335H2.00002C1.26364 7.33335 0.666687 7.93031 0.666687 8.66669V18C0.666687 18.7364 1.26364 19.3334 2.00002 19.3334H14C14.7364 19.3334 15.3334 18.7364 15.3334 18V12.6667H6.00002" stroke="#4F4F4F"/>
</svg>
