<svg width="12" height="12" viewBox="0 0 12 12" fill="none" xmlns="http://www.w3.org/2000/svg">
<path d="M1.33331 7.33331L0.97976 6.97976L0.833313 7.12621V7.33331H1.33331ZM7.33331 1.33331L7.68687 0.97976C7.4916 0.784497 7.17502 0.784497 6.97976 0.97976L7.33331 1.33331ZM10.6666 4.66665L11.0202 5.0202C11.114 4.92643 11.1666 4.79925 11.1666 4.66665C11.1666 4.53404 11.114 4.40686 11.0202 4.31309L10.6666 4.66665ZM4.66665 10.6666V11.1666H4.87375L5.0202 11.0202L4.66665 10.6666ZM1.33331 10.6666H0.833313C0.833313 10.9428 1.05717 11.1666 1.33331 11.1666V10.6666ZM1.68687 7.68687L7.68687 1.68687L6.97976 0.97976L0.97976 6.97976L1.68687 7.68687ZM6.97976 1.68687L10.3131 5.0202L11.0202 4.31309L7.68687 0.97976L6.97976 1.68687ZM10.3131 4.31309L4.31309 10.3131L5.0202 11.0202L11.0202 5.0202L10.3131 4.31309ZM4.66665 10.1666H1.33331V11.1666H4.66665V10.1666ZM1.83331 10.6666V7.33331H0.833313V10.6666H1.83331ZM4.97976 3.68687L8.31309 7.0202L9.0202 6.31309L5.68687 2.97976L4.97976 3.68687ZM6.33331 11.1666H11V10.1666H6.33331V11.1666Z" fill="#828282"/>
</svg>
