<svg width="20" height="11" viewBox="0 0 20 11" fill="none" xmlns="http://www.w3.org/2000/svg">
<path d="M9.99998 7.16667C6.85264 7.16667 4.64445 5.59827 3.20498 3.99885C2.48489 3.19875 1.96353 2.39696 1.62251 1.79516C1.45229 1.49476 1.32778 1.24557 1.24654 1.07325C1.20594 0.987129 1.1762 0.920327 1.15703 0.876067C1.14744 0.853941 1.14049 0.837461 1.13615 0.827029C1.13398 0.821814 1.13246 0.818112 1.13159 0.815975C1.13115 0.814906 1.13088 0.814228 1.13077 0.813948C1.13071 0.813808 1.13069 0.813767 1.13072 0.813826C1.13073 0.813856 1.13078 0.813976 1.13078 0.813991C1.13084 0.814136 1.13091 0.814306 0.666672 1C0.202433 1.18569 0.202521 1.18592 0.20262 1.18616C0.202667 1.18628 0.202776 1.18655 0.202869 1.18678C0.203056 1.18725 0.203284 1.18781 0.203554 1.18848C0.204093 1.18982 0.204798 1.19155 0.205669 1.19369C0.207411 1.19796 0.209819 1.20382 0.212898 1.21122C0.219055 1.22602 0.227898 1.24697 0.239469 1.27367C0.262607 1.32707 0.296675 1.4035 0.342012 1.49967C0.432649 1.69193 0.568553 1.96357 0.75249 2.28817C1.1198 2.93637 1.68177 3.80125 2.46168 4.66782C4.0222 6.40173 6.48066 8.16667 9.99998 8.16667V7.16667ZM19.3333 1C18.8691 0.814303 18.8692 0.814133 18.8692 0.813988C18.8692 0.813974 18.8693 0.813853 18.8693 0.813824C18.8693 0.813765 18.8693 0.813805 18.8692 0.813945C18.8691 0.814226 18.8689 0.814903 18.8684 0.815972C18.8675 0.81811 18.866 0.821812 18.8639 0.827027C18.8595 0.837458 18.8526 0.853939 18.843 0.876065C18.8238 0.920325 18.7941 0.987126 18.7535 1.07325C18.6722 1.24557 18.5477 1.49476 18.3775 1.79516C18.0365 2.39696 17.5151 3.19875 16.795 3.99885C15.3555 5.59827 13.1473 7.16667 9.99998 7.16667V8.16667C13.5193 8.16667 15.9778 6.40173 17.5383 4.66782C18.3182 3.80125 18.8802 2.93637 19.2475 2.28817C19.4314 1.96358 19.5674 1.69193 19.658 1.49967C19.7033 1.4035 19.7374 1.32707 19.7605 1.27367C19.7721 1.24697 19.781 1.22602 19.7871 1.21122C19.7902 1.20382 19.7926 1.19796 19.7943 1.19369C19.7952 1.19156 19.7959 1.18982 19.7965 1.18848C19.7967 1.18782 19.797 1.18725 19.7971 1.18678C19.7972 1.18655 19.7973 1.18628 19.7974 1.18616C19.7975 1.18592 19.7976 1.1857 19.3333 1ZM10.5 11L10.5 7.66666L9.49998 7.66667L9.5 11L10.5 11ZM1.68689 8.68689L4.35356 6.02022L3.64645 5.31311L0.979785 7.97978L1.68689 8.68689ZM15.6465 6.02022L18.3131 8.68689L19.0202 7.97978L16.3536 5.31311L15.6465 6.02022Z" fill="#9976FB"/>
</svg>
