<svg width="20" height="20" viewBox="0 0 20 20" fill="none" xmlns="http://www.w3.org/2000/svg">
<path d="M6 0C4.89543 0 4 0.895431 4 2V11.3333C4 12.4379 4.89543 13.3333 6 13.3333H18C19.1046 13.3333 20 12.4379 20 11.3333V4.66667C20 3.5621 19.1046 2.66667 18 2.66667H12.9428L10.2761 0H6Z" fill="#4F4F4F"/>
<path d="M16 14.6667H6C4.15905 14.6667 2.66667 13.1743 2.66667 11.3333V6.66667H2C0.89543 6.66667 0 7.5621 0 8.66667V18C0 19.1046 0.895431 20 2 20H14C15.1046 20 16 19.1046 16 18V14.6667Z" fill="#4F4F4F"/>
</svg>
