<svg width="19" height="20" viewBox="0 0 19 20" fill="none" xmlns="http://www.w3.org/2000/svg">
<path d="M18 9.99996L10.3235 17.6764C9.26264 18.7373 7.8238 19.3333 6.32351 19.3333C3.19932 19.3333 0.666656 16.8006 0.666656 13.6764C0.666656 12.1761 1.26264 10.7373 2.32351 9.67644L10.2288 1.77119C10.936 1.06395 11.8952 0.666626 12.8954 0.666626C14.9782 0.666626 16.6667 2.35507 16.6667 4.43786C16.6667 5.43806 16.2693 6.39728 15.5621 7.10453L7.88561 14.781C7.53199 15.1346 7.05237 15.3333 6.55227 15.3333C5.51088 15.3333 4.66666 14.4891 4.66666 13.4477C4.66666 12.9476 4.86532 12.468 5.21894 12.1143L12.6667 4.66663" stroke="#FF9337"/>
</svg>
