<svg width="18" height="20" viewBox="0 0 18 20" fill="none" xmlns="http://www.w3.org/2000/svg">
<path d="M5 9.49386H4.5V10.4939H5V9.49386ZM13 10.4939H13.5V9.49386H13V10.4939ZM5.00054 13.4913L4.50054 13.4907L4.49946 14.4907L4.99946 14.4913L5.00054 13.4913ZM12.9995 14.5L13.4995 14.5005L13.5005 13.5005L13.0005 13.5L12.9995 14.5ZM5.00033 5.49646L4.50033 5.49613L4.49967 6.49613L4.99967 6.49646L5.00033 5.49646ZM10.333 6.49996L10.833 6.50029L10.8337 5.50029L10.3337 5.49996L10.333 6.49996ZM13 0.666626L13.3536 0.313073L13.2071 0.166626H13V0.666626ZM17 4.66663H17.5V4.45952L17.3536 4.31307L17 4.66663ZM5 10.4939H13V9.49386H5V10.4939ZM4.99946 14.4913L12.9995 14.5L13.0005 13.5L5.00054 13.4913L4.99946 14.4913ZM4.99967 6.49646L10.333 6.49996L10.3337 5.49996L5.00033 5.49646L4.99967 6.49646ZM15.6667 18.8333H2.33333V19.8333H15.6667V18.8333ZM1.5 18V1.99996H0.5V18H1.5ZM2.33333 1.16663H13V0.166626H2.33333V1.16663ZM16.5 4.66663V18H17.5V4.66663H16.5ZM12.6464 1.02018L16.6464 5.02018L17.3536 4.31307L13.3536 0.313073L12.6464 1.02018ZM2.33333 18.8333C1.8731 18.8333 1.5 18.4602 1.5 18H0.5C0.5 19.0125 1.32081 19.8333 2.33333 19.8333V18.8333ZM15.6667 19.8333C16.6792 19.8333 17.5 19.0125 17.5 18H16.5C16.5 18.4602 16.1269 18.8333 15.6667 18.8333V19.8333ZM1.5 1.99996C1.5 1.53972 1.8731 1.16663 2.33333 1.16663V0.166626C1.32081 0.166626 0.5 0.987438 0.5 1.99996H1.5Z" fill="black"/>
</svg>
