<svg width="20" height="20" viewBox="0 0 20 20" fill="none" xmlns="http://www.w3.org/2000/svg">
<path d="M0.666656 12.6667L0.313103 12.3131L0.166656 12.4596V12.6667H0.666656ZM12.6667 0.666687L13.0202 0.313134C12.8249 0.117871 12.5084 0.117871 12.3131 0.313134L12.6667 0.666687ZM19.3333 7.33335L19.6869 7.68691C19.7806 7.59314 19.8333 7.46596 19.8333 7.33335C19.8333 7.20075 19.7806 7.07357 19.6869 6.9798L19.3333 7.33335ZM7.33332 19.3334V19.8334H7.54043L7.68688 19.6869L7.33332 19.3334ZM0.666656 19.3334H0.166656C0.166656 19.6095 0.390514 19.8334 0.666656 19.8334L0.666656 19.3334ZM1.02021 13.0202L13.0202 1.02024L12.3131 0.313134L0.313103 12.3131L1.02021 13.0202ZM12.3131 1.02024L18.9798 7.68691L19.6869 6.9798L13.0202 0.313134L12.3131 1.02024ZM18.9798 6.9798L6.97977 18.9798L7.68688 19.6869L19.6869 7.68691L18.9798 6.9798ZM7.33332 18.8334H0.666656V19.8334H7.33332V18.8334ZM1.16666 19.3334V12.6667H0.166656V19.3334H1.16666ZM8.3131 5.02024L14.9798 11.6869L15.6869 10.9798L9.02021 4.31313L8.3131 5.02024ZM10.6667 19.8334H20V18.8334H10.6667V19.8334Z" fill="#6B3FE7"/>
</svg>
