<svg width="20" height="20" viewBox="0 0 20 20" fill="none" xmlns="http://www.w3.org/2000/svg">
<path fill-rule="evenodd" clip-rule="evenodd" d="M7.93005 0.666626L7.81539 1.2489L7.37673 3.37952C6.6754 3.64734 6.03939 4.02713 5.46472 4.4775L3.32072 3.76062L2.74473 3.58207L2.44607 4.0964L0.970052 6.56409L0.671387 7.07849L1.10872 7.4609L2.76739 8.87195C2.70739 9.24104 2.63007 9.60611 2.63007 9.99386C2.63007 10.3816 2.70739 10.7468 2.76739 11.1158L1.10872 12.5269L0.671387 12.9093L0.970052 13.4236L2.44607 15.8914L2.74473 16.407L3.32072 16.2272L5.46472 15.5103C6.03939 15.9607 6.6754 16.3404 7.37673 16.6082L7.81539 18.7388L7.93005 19.3212H12.0781L12.1941 18.7388L12.6314 16.6082C13.3327 16.3404 13.9687 15.9607 14.5434 15.5103L16.6874 16.2272L17.2634 16.407L17.5634 15.8914L19.0381 13.4236L19.3381 12.9093L18.8994 12.5269L17.2407 11.1158C17.3021 10.7468 17.3781 10.3816 17.3781 9.99386C17.3781 9.60611 17.3021 9.24104 17.2407 8.87195L18.8994 7.4609L19.3381 7.07849L19.0381 6.56409L17.5634 4.0964L17.2634 3.58207L16.6874 3.76062L14.5434 4.4775C13.9687 4.02713 13.3327 3.64734 12.6314 3.37952L12.1941 1.2489L12.0781 0.666626H7.93005Z" stroke="#FF9337" stroke-linecap="square" stroke-linejoin="round"/>
<path fill-rule="evenodd" clip-rule="evenodd" d="M12.6709 9.99386C12.6709 11.4649 11.4762 12.6588 10.0042 12.6588C8.53223 12.6588 7.33756 11.4649 7.33756 9.99386C7.33756 8.52282 8.53223 7.32898 10.0042 7.32898C11.4762 7.32898 12.6709 8.52282 12.6709 9.99386Z" stroke="#FF9337" stroke-linecap="square" stroke-linejoin="round"/>
</svg>
