<svg width="20" height="20" viewBox="0 0 20 20" fill="none" xmlns="http://www.w3.org/2000/svg">
<path fill-rule="evenodd" clip-rule="evenodd" d="M7.92529 0.666656L7.81063 1.24893L7.37197 3.37955C6.67063 3.64737 6.03463 4.02716 5.45996 4.47753L3.31596 3.76065L2.73997 3.5821L2.4413 4.09643L0.965291 6.56412L0.666626 7.07852L1.10396 7.46093L2.76263 8.87198C2.70263 9.24107 2.62531 9.60614 2.62531 9.99389C2.62531 10.3816 2.70263 10.7468 2.76263 11.1159L1.10396 12.5269L0.666626 12.9093L0.965291 13.4237L2.4413 15.8914L2.73997 16.4071L3.31596 16.2272L5.45996 15.5103C6.03463 15.9607 6.67063 16.3404 7.37197 16.6082L7.81063 18.7388L7.92529 19.3212H12.0733L12.1893 18.7388L12.6266 16.6082C13.328 16.3404 13.964 15.9607 14.5386 15.5103L16.6826 16.2272L17.2586 16.4071L17.5586 15.8914L19.0333 13.4237L19.3333 12.9093L18.8946 12.5269L17.236 11.1159C17.2973 10.7468 17.3733 10.3816 17.3733 9.99389C17.3733 9.60614 17.2973 9.24107 17.236 8.87198L18.8946 7.46093L19.3333 7.07852L19.0333 6.56412L17.5586 4.09643L17.2586 3.5821L16.6826 3.76065L14.5386 4.47753C13.964 4.02716 13.328 3.64737 12.6266 3.37955L12.1893 1.24893L12.0733 0.666656H7.92529Z" stroke="white" stroke-linecap="square" stroke-linejoin="round"/>
<path fill-rule="evenodd" clip-rule="evenodd" d="M12.6661 9.99389C12.6661 11.4649 11.4715 12.6588 9.99947 12.6588C8.52747 12.6588 7.3328 11.4649 7.3328 9.99389C7.3328 8.52285 8.52747 7.32901 9.99947 7.32901C11.4715 7.32901 12.6661 8.52285 12.6661 9.99389Z" stroke="white" stroke-linecap="square" stroke-linejoin="round"/>
</svg>
