<svg width="181" height="241" viewBox="0 0 181 241" fill="none" xmlns="http://www.w3.org/2000/svg">
<path d="M21.2461 231.858C21.2461 234.524 20.2822 236.616 18.3545 238.134C16.4268 239.651 13.7676 240.41 10.377 240.41C6.98633 240.41 4.21094 239.884 2.05078 238.831V234.196C3.41797 234.839 4.86719 235.345 6.39844 235.714C7.94336 236.083 9.37891 236.268 10.7051 236.268C12.6465 236.268 14.0752 235.898 14.9912 235.16C15.9209 234.422 16.3857 233.431 16.3857 232.187C16.3857 231.065 15.9619 230.115 15.1143 229.336C14.2666 228.557 12.5166 227.634 9.86426 226.567C7.12988 225.46 5.20215 224.195 4.08105 222.773C2.95996 221.352 2.39941 219.643 2.39941 217.646C2.39941 215.145 3.28809 213.176 5.06543 211.74C6.84277 210.305 9.22852 209.587 12.2227 209.587C15.0938 209.587 17.9512 210.216 20.7949 211.474L19.2363 215.473C16.5703 214.352 14.1914 213.791 12.0996 213.791C10.5137 213.791 9.31055 214.14 8.49023 214.837C7.66992 215.521 7.25977 216.43 7.25977 217.564C7.25977 218.344 7.42383 219.014 7.75195 219.574C8.08008 220.121 8.62012 220.641 9.37207 221.133C10.124 221.625 11.4775 222.274 13.4326 223.081C15.6338 223.997 17.2471 224.852 18.2725 225.645C19.2979 226.438 20.0498 227.333 20.5283 228.331C21.0068 229.329 21.2461 230.505 21.2461 231.858ZM31.6124 228.023L34.3399 224.619L41.1895 217.318H46.7471L37.6212 227.06L47.3214 240H41.6612L34.3809 230.054L31.7354 232.228V240H26.9571V208.09H31.7354V223.655L31.4893 228.023H31.6124ZM56.2316 240H51.4123V217.318H56.2316V240ZM51.1252 211.31C51.1252 210.448 51.3576 209.785 51.8224 209.32C52.3009 208.855 52.9777 208.623 53.8527 208.623C54.7004 208.623 55.3566 208.855 55.8214 209.32C56.3 209.785 56.5392 210.448 56.5392 211.31C56.5392 212.13 56.3 212.779 55.8214 213.258C55.3566 213.723 54.7004 213.955 53.8527 213.955C52.9777 213.955 52.3009 213.723 51.8224 213.258C51.3576 212.779 51.1252 212.13 51.1252 211.31ZM68.3821 240H63.5627V208.09H68.3821V240ZM80.5325 240H75.7132V208.09H80.5325V240ZM101.132 213.791C98.3158 213.791 96.101 214.789 94.4877 216.785C92.8744 218.781 92.0678 221.536 92.0678 225.05C92.0678 228.728 92.8402 231.51 94.3852 233.396C95.9437 235.283 98.1928 236.227 101.132 236.227C102.404 236.227 103.634 236.104 104.824 235.857C106.013 235.598 107.25 235.27 108.536 234.873V239.077C106.184 239.966 103.518 240.41 100.537 240.41C96.1488 240.41 92.7787 239.084 90.4271 236.432C88.0756 233.766 86.8998 229.958 86.8998 225.009C86.8998 221.892 87.4672 219.164 88.602 216.826C89.7504 214.488 91.4047 212.697 93.5648 211.453C95.725 210.209 98.2611 209.587 101.173 209.587C104.236 209.587 107.066 210.229 109.663 211.515L107.9 215.596C106.888 215.117 105.815 214.7 104.68 214.345C103.559 213.976 102.376 213.791 101.132 213.791ZM134.857 240H130.017V226.055C130.017 224.305 129.662 222.999 128.951 222.138C128.253 221.276 127.139 220.846 125.608 220.846C123.584 220.846 122.094 221.454 121.137 222.671C120.194 223.874 119.722 225.897 119.722 228.741V240H114.903V208.09H119.722V216.19C119.722 217.489 119.64 218.877 119.476 220.354H119.784C120.44 219.26 121.349 218.412 122.511 217.811C123.687 217.209 125.054 216.908 126.613 216.908C132.109 216.908 134.857 219.677 134.857 225.214V240ZM156.174 240L155.211 236.842H155.046C153.953 238.223 152.852 239.166 151.745 239.672C150.637 240.164 149.215 240.41 147.479 240.41C145.251 240.41 143.507 239.809 142.25 238.605C141.005 237.402 140.383 235.7 140.383 233.499C140.383 231.161 141.252 229.397 142.988 228.208C144.724 227.019 147.37 226.369 150.924 226.26L154.841 226.137V224.927C154.841 223.478 154.5 222.397 153.816 221.687C153.146 220.962 152.1 220.6 150.678 220.6C149.516 220.6 148.402 220.771 147.336 221.112C146.269 221.454 145.244 221.857 144.259 222.322L142.701 218.877C143.931 218.234 145.278 217.749 146.741 217.421C148.204 217.079 149.585 216.908 150.883 216.908C153.768 216.908 155.942 217.537 157.405 218.795C158.881 220.053 159.62 222.028 159.62 224.722V240H156.174ZM148.997 236.719C150.747 236.719 152.148 236.233 153.201 235.263C154.267 234.278 154.8 232.904 154.8 231.141V229.172L151.888 229.295C149.619 229.377 147.964 229.76 146.925 230.443C145.9 231.113 145.387 232.146 145.387 233.54C145.387 234.552 145.688 235.338 146.29 235.898C146.891 236.445 147.794 236.719 148.997 236.719ZM175.215 236.514C176.391 236.514 177.567 236.329 178.743 235.96V239.59C178.21 239.822 177.519 240.014 176.672 240.164C175.838 240.328 174.969 240.41 174.067 240.41C169.501 240.41 167.217 238.004 167.217 233.191V220.969H164.121V218.836L167.443 217.072L169.084 212.273H172.057V217.318H178.517V220.969H172.057V233.109C172.057 234.271 172.344 235.133 172.919 235.693C173.506 236.24 174.272 236.514 175.215 236.514Z" fill="#7F57F0"/>
<path fill-rule="evenodd" clip-rule="evenodd" d="M1 0H1.98361H25.5902H103.295V24.3094H25.5902V75.8453H156.41H181V100.155L181 151.691V176L156.41 176L79.6885 176V151.691H156.41V100.155H3.95084L1 100.155V0Z" fill="#7F57F0"/>
<path fill-rule="evenodd" clip-rule="evenodd" d="M156.41 24.3094V47.6464H181L181 24.3094L181 0H156.41L132.803 3.43323e-05V24.3094H156.41ZM1 151.691V128.354H25.5902V151.691H49.1967V176L25.5902 176H1V151.691Z" fill="#FF9133"/>
</svg>
