<svg width="46" height="63" viewBox="0 0 46 63" fill="none" xmlns="http://www.w3.org/2000/svg">
<path d="M5.21035 57.0034C5.21035 57.6572 4.97397 58.1702 4.50122 58.5423C4.02847 58.9145 3.37633 59.1006 2.54482 59.1006C1.71331 59.1006 1.03268 58.9715 0.50293 58.7133V57.5767C0.838216 57.7343 1.19362 57.8583 1.56914 57.9489C1.94801 58.0394 2.30007 58.0847 2.62529 58.0847C3.1014 58.0847 3.45177 57.9941 3.67642 57.8131C3.90441 57.632 4.01841 57.3889 4.01841 57.0838C4.01841 56.8089 3.91447 56.5759 3.70659 56.3848C3.49871 56.1937 3.06955 55.9673 2.41909 55.7058C1.74852 55.4342 1.27576 55.1241 1.00083 54.7754C0.725895 54.4267 0.588428 54.0076 0.588428 53.5181C0.588428 52.9045 0.806364 52.4217 1.24224 52.0696C1.67811 51.7176 2.26318 51.5416 2.99746 51.5416C3.70156 51.5416 4.40231 51.6958 5.09971 52.0042L4.71748 52.985C4.06367 52.71 3.48027 52.5726 2.96729 52.5726C2.57835 52.5726 2.2833 52.6581 2.08213 52.8291C1.88096 52.9967 1.78037 53.2197 1.78037 53.4979C1.78037 53.6891 1.82061 53.8534 1.90107 53.9908C1.98154 54.1249 2.11398 54.2523 2.29839 54.373C2.4828 54.4937 2.81473 54.653 3.29419 54.8508C3.834 55.0755 4.22964 55.285 4.4811 55.4795C4.73257 55.674 4.91698 55.8936 5.03433 56.1383C5.15168 56.3831 5.21035 56.6714 5.21035 57.0034ZM7.75256 56.0629L8.42146 55.228L10.1012 53.4376H11.4642L9.22614 55.8265L11.605 59H10.2169L8.43152 56.5608L7.78274 57.0939V59H6.61091V51.1744H7.78274V54.9917L7.72238 56.0629H7.75256ZM13.7901 59H12.6082V53.4376H13.7901V59ZM12.5378 51.964C12.5378 51.7528 12.5948 51.5902 12.7088 51.4762C12.8262 51.3622 12.9921 51.3052 13.2067 51.3052C13.4146 51.3052 13.5755 51.3622 13.6895 51.4762C13.8069 51.5902 13.8656 51.7528 13.8656 51.964C13.8656 52.1652 13.8069 52.3244 13.6895 52.4418C13.5755 52.5558 13.4146 52.6128 13.2067 52.6128C12.9921 52.6128 12.8262 52.5558 12.7088 52.4418C12.5948 52.3244 12.5378 52.1652 12.5378 51.964ZM16.7699 59H15.588V51.1744H16.7699V59ZM19.7496 59H18.5678V51.1744H19.7496V59ZM24.8015 52.5726C24.1108 52.5726 23.5676 52.8173 23.172 53.3068C22.7763 53.7964 22.5785 54.472 22.5785 55.3336C22.5785 56.2356 22.768 56.9179 23.1468 57.3806C23.5291 57.8433 24.0806 58.0746 24.8015 58.0746C25.1133 58.0746 25.415 58.0444 25.7067 57.9841C25.9984 57.9204 26.3019 57.8399 26.6171 57.7427V58.7737C26.0404 58.9916 25.3866 59.1006 24.6556 59.1006C23.5794 59.1006 22.7529 58.7754 22.1762 58.1249C21.5995 57.4711 21.3111 56.5373 21.3111 55.3236C21.3111 54.5591 21.4503 53.8902 21.7286 53.3169C22.0102 52.7436 22.4159 52.3043 22.9457 51.9992C23.4754 51.6941 24.0974 51.5416 24.8115 51.5416C25.5626 51.5416 26.2566 51.6991 26.8937 52.0143L26.4611 53.0151C26.213 52.8978 25.9498 52.7955 25.6715 52.7083C25.3966 52.6178 25.1066 52.5726 24.8015 52.5726ZM33.0721 59H31.8851V55.5801C31.8851 55.1509 31.798 54.8307 31.6236 54.6195C31.4526 54.4083 31.1794 54.3026 30.8038 54.3026C30.3076 54.3026 29.9422 54.4518 29.7075 54.7502C29.4761 55.0453 29.3604 55.5415 29.3604 56.2389V59H28.1785V51.1744H29.3604V53.161C29.3604 53.4795 29.3403 53.8198 29.3001 54.1819H29.3755C29.5365 53.9137 29.7594 53.7058 30.0444 53.5583C30.3328 53.4108 30.668 53.337 31.0503 53.337C32.3981 53.337 33.0721 54.016 33.0721 55.3739V59ZM38.2999 59L38.0635 58.2255H38.0233C37.7551 58.5641 37.4852 58.7955 37.2136 58.9195C36.942 59.0402 36.5933 59.1006 36.1675 59.1006C35.621 59.1006 35.1935 58.9531 34.885 58.658C34.5799 58.363 34.4273 57.9455 34.4273 57.4057C34.4273 56.8324 34.6403 56.3999 35.0661 56.1082C35.4919 55.8165 36.1407 55.6572 37.0124 55.6304L37.973 55.6002V55.3035C37.973 54.9481 37.8892 54.6832 37.7215 54.5088C37.5572 54.3311 37.3008 54.2423 36.9521 54.2423C36.6671 54.2423 36.3938 54.2842 36.1323 54.368C35.8708 54.4518 35.6193 54.5507 35.3779 54.6647L34.9957 53.8198C35.2974 53.6622 35.6277 53.5432 35.9864 53.4627C36.3452 53.3789 36.6838 53.337 37.0023 53.337C37.7098 53.337 38.2429 53.4912 38.6017 53.7997C38.9638 54.1082 39.1448 54.5927 39.1448 55.2532V59H38.2999ZM36.5397 58.1953C36.9688 58.1953 37.3125 58.0763 37.5707 57.8382C37.8322 57.5968 37.9629 57.2599 37.9629 56.8273V56.3445L37.2488 56.3747C36.6922 56.3948 36.2865 56.4887 36.0317 56.6563C35.7802 56.8206 35.6545 57.0738 35.6545 57.4158C35.6545 57.6639 35.7283 57.8567 35.8758 57.9941C36.0233 58.1283 36.2446 58.1953 36.5397 58.1953ZM42.9695 58.145C43.2579 58.145 43.5462 58.0998 43.8345 58.0092V58.8994C43.7038 58.9564 43.5345 59.0034 43.3266 59.0402C43.1221 59.0805 42.9092 59.1006 42.6879 59.1006C41.568 59.1006 41.0081 58.5105 41.0081 57.3303V54.3328H40.2487V53.8098L41.0634 53.3772L41.4657 52.2004H42.195V53.4376H43.7792V54.3328H42.195V57.3102C42.195 57.5951 42.2654 57.8064 42.4062 57.9438C42.5504 58.078 42.7382 58.145 42.9695 58.145Z" fill="#F2F2F2"/>
<path fill-rule="evenodd" clip-rule="evenodd" d="M0 0H0.240386H6.01093H25.0054V6.07734H6.01093V18.9613H37.9891H43.9999H44L44 37.9226V43.9999L44 44H37.9891V43.9999H19.235V37.9226H37.9891V25.0387H0.721252V25.0387H0V0Z" fill="white"/>
<path fill-rule="evenodd" clip-rule="evenodd" d="M37.9891 6.07739V11.9116H44V0H37.9891V4.57764e-05H32.2186V6.07739H37.9891ZM0 37.9226V32.0884H6.01093V37.9226H11.7814V44H6.01093V44H0V44V37.9226Z" fill="#FF9133"/>
</svg>
