<svg width="20" height="20" viewBox="0 0 20 20" fill="none" xmlns="http://www.w3.org/2000/svg">
<path d="M6.40002 11.7L6.10002 11.3L5.30002 11.9L5.60002 12.3L6.40002 11.7ZM14.4 12.3L14.7 11.9L13.9 11.3L13.6 11.7L14.4 12.3ZM10 18.8333C5.12151 18.8333 1.16669 14.8785 1.16669 9.99999H0.166687C0.166687 15.4308 4.56922 19.8333 10 19.8333V18.8333ZM18.8334 9.99999C18.8334 14.8785 14.8785 18.8333 10 18.8333V19.8333C15.4308 19.8333 19.8334 15.4308 19.8334 9.99999H18.8334ZM10 1.16666C14.8785 1.16666 18.8334 5.12147 18.8334 9.99999H19.8334C19.8334 4.56919 15.4308 0.166656 10 0.166656V1.16666ZM10 0.166656C4.56922 0.166656 0.166687 4.56919 0.166687 9.99999H1.16669C1.16669 5.12147 5.12151 1.16666 10 1.16666V0.166656ZM5.33335 7.83332H6.66669V6.83332H5.33335V7.83332ZM13.3334 7.83332H14.6667V6.83332H13.3334V7.83332ZM13.6 11.7C11.8 14.1 8.20002 14.1 6.40002 11.7L5.60002 12.3C7.80002 15.2333 12.2 15.2333 14.4 12.3L13.6 11.7Z" fill="#FF9337"/>
</svg>
