<svg width="20" height="20" viewBox="0 0 20 20" fill="none" xmlns="http://www.w3.org/2000/svg">
<path d="M6.40002 11.7L6.10002 11.3L5.30002 11.9L5.60002 12.3L6.40002 11.7ZM14.4 12.3L14.7 11.9L13.9 11.3L13.6 11.7L14.4 12.3ZM10 18.8334C5.12151 18.8334 1.16669 14.8785 1.16669 10H0.166687C0.166687 15.4308 4.56922 19.8334 10 19.8334V18.8334ZM18.8334 10C18.8334 14.8785 14.8785 18.8334 10 18.8334V19.8334C15.4308 19.8334 19.8334 15.4308 19.8334 10H18.8334ZM10 1.16669C14.8785 1.16669 18.8334 5.12151 18.8334 10H19.8334C19.8334 4.56922 15.4308 0.166687 10 0.166687V1.16669ZM10 0.166687C4.56922 0.166687 0.166687 4.56922 0.166687 10H1.16669C1.16669 5.12151 5.12151 1.16669 10 1.16669V0.166687ZM5.33335 7.83335H6.66669V6.83335H5.33335V7.83335ZM13.3334 7.83335H14.6667V6.83335H13.3334V7.83335ZM13.6 11.7C11.8 14.1 8.20002 14.1 6.40002 11.7L5.60002 12.3C7.80002 15.2334 12.2 15.2334 14.4 12.3L13.6 11.7Z" fill="#828282"/>
</svg>
