<svg width="20" height="20" viewBox="0 0 20 20" fill="none" xmlns="http://www.w3.org/2000/svg">
<path d="M16.5 13V20M13 16.5H20" stroke="#FF9337"/>
<path fill-rule="evenodd" clip-rule="evenodd" d="M0.166656 10C0.166656 4.56922 4.56919 0.166687 9.99999 0.166687C15.4308 0.166687 19.8333 4.56922 19.8333 10C19.8333 11.0554 19.667 12.072 19.3593 13.025C19.0922 12.805 18.7994 12.6152 18.486 12.4609C18.7121 11.6797 18.8333 10.854 18.8333 10C18.8333 5.12151 14.8785 1.16669 9.99999 1.16669C5.12148 1.16669 1.16666 5.12151 1.16666 10C1.16666 14.8785 5.12147 18.8334 9.99999 18.8334C10.7967 18.8334 11.5688 18.7279 12.3031 18.5301C12.4361 18.8512 12.6098 19.1512 12.8177 19.4237C11.925 19.6902 10.9792 19.8334 9.99999 19.8334C4.56919 19.8334 0.166656 15.4308 0.166656 10ZM6.66666 7.83335H5.33332V6.83335H6.66666V7.83335ZM14.6667 7.83335H13.3333V6.83335H14.6667V7.83335ZM5.64644 9.64647C5.7402 9.5527 5.86738 9.50002 5.99999 9.50002H14C14.1326 9.50002 14.2598 9.5527 14.3535 9.64647C14.4473 9.74023 14.5 9.86741 14.5 10C14.5 12.5355 12.5355 14.5 9.99999 14.5C7.46449 14.5 5.49999 12.5355 5.49999 10C5.49999 9.86741 5.55267 9.74023 5.64644 9.64647ZM6.53289 10.5C6.76397 12.2326 8.1871 13.5 9.99999 13.5C11.8129 13.5 13.236 12.2326 13.4671 10.5H6.53289Z" fill="#FF9337"/>
</svg>
