<svg width="20" height="20" viewBox="0 0 20 20" fill="none" xmlns="http://www.w3.org/2000/svg">
<path d="M10 20C15.5228 20 20 15.5228 20 10C20 4.47715 15.5228 0 10 0C4.47715 0 0 4.47715 0 10C0 15.5228 4.47715 20 10 20Z" fill="#FFCA28"/>
<path d="M9.98749 17.5125C6.64373 17.5125 3.67748 15.2688 2.77373 12.0575C2.67873 11.725 2.87248 11.38 3.20498 11.2863C3.53623 11.1938 3.88248 11.3863 3.97623 11.7188C4.72873 14.395 7.20123 16.2638 9.98749 16.2638C12.7737 16.2638 15.245 14.395 15.9987 11.7188C16.0925 11.3863 16.4325 11.1913 16.77 11.2863C17.1025 11.38 17.295 11.7263 17.2025 12.0575C16.2962 15.2688 13.33 17.5125 9.98749 17.5125Z" fill="#6D4C41"/>
<path d="M15.6125 8.13751C15.2675 8.13751 14.9875 7.85751 14.9875 7.51251C14.9875 6.82376 14.4275 6.26251 13.7375 6.26251C13.0475 6.26251 12.4875 6.82376 12.4875 7.51251C12.4875 7.85751 12.2075 8.13751 11.8625 8.13751C11.5175 8.13751 11.2375 7.85751 11.2375 7.51251C11.2375 6.13376 12.3587 5.01251 13.7375 5.01251C15.1162 5.01251 16.2375 6.13376 16.2375 7.51251C16.2375 7.85876 15.9575 8.13751 15.6125 8.13751Z" fill="#6D4C41"/>
<path d="M8.11249 8.13751C7.76749 8.13751 7.48749 7.85751 7.48749 7.51251C7.48749 6.82376 6.92624 6.26251 6.23749 6.26251C5.54874 6.26251 4.98749 6.82376 4.98749 7.51251C4.98749 7.85751 4.70749 8.13751 4.36249 8.13751C4.01749 8.13751 3.73749 7.85751 3.73749 7.51251C3.73749 6.13376 4.85874 5.01251 6.23749 5.01251C7.61624 5.01251 8.73749 6.13376 8.73749 7.51251C8.73749 7.85876 8.45749 8.13751 8.11249 8.13751Z" fill="#6D4C41"/>
</svg>
