<svg width="10" height="10" viewBox="0 0 10 10" fill="none" xmlns="http://www.w3.org/2000/svg">
<path d="M3.66667 0C2.37811 0 1.33333 1.04378 1.33333 2.33203C1.33333 3.62028 2.37811 4.66406 3.66667 4.66406C4.95522 4.66406 6 3.62028 6 2.33203C6 1.04378 4.95522 0 3.66667 0Z" fill="#333333"/>
<path d="M2.33333 5.99609C1.04474 5.99609 0 7.04035 0 8.32909V9.99392H7.33333V8.32909C7.33333 7.04035 6.28859 5.99609 5 5.99609H2.33333Z" fill="#333333"/>
<path d="M8.33333 6.66667H8V10H10V8.33333C10 7.41286 9.25381 6.66667 8.33333 6.66667Z" fill="#333333"/>
<path d="M7.66667 2.66667C6.74619 2.66667 6 3.41286 6 4.33333C6 5.25381 6.74619 6 7.66667 6C8.58714 6 9.33333 5.25381 9.33333 4.33333C9.33333 3.41286 8.58714 2.66667 7.66667 2.66667Z" fill="#333333"/>
</svg>
